<?xml version="1.0" encoding="UTF-8" standalone="no"?>
<!-- Created with Inkscape (http://www.inkscape.org/) -->

<svg
   version="1.1"
   id="svg1"
   width="13.593751"
   height="13.59375"
   viewBox="0 0 13.593751 13.593751"
   xmlns:inkscape="http://www.inkscape.org/namespaces/inkscape"
   xmlns:sodipodi="http://sodipodi.sourceforge.net/DTD/sodipodi-0.dtd"
   xmlns="http://www.w3.org/2000/svg"
   xmlns:svg="http://www.w3.org/2000/svg">
  <defs
     id="defs1">
    <clipPath
       clipPathUnits="userSpaceOnUse"
       id="clipPath423">
      <path
         d="M 0,0 H 2479.9805 V 3508.0078 H 0 Z"
         transform="matrix(0.31999999,0,0,0.31999999,-625.99997,-1014)"
         clip-rule="evenodd"
         id="path423" />
    </clipPath>
  </defs>
  <sodipodi:namedview
     id="namedview1"
     pagecolor="#ffffff"
     bordercolor="#999999"
     borderopacity="1"
     inkscape:showpageshadow="0"
     inkscape:pageopacity="0"
     inkscape:pagecheckerboard="0"
     inkscape:deskcolor="#d1d1d1"
     inkscape:export-bgcolor="#ffffff00" />
  <g
     id="g1"
     inkscape:groupmode="layer"
     inkscape:label="1"
     transform="translate(-626,-1001.25)">
    <path
       id="path422"
       d="m 11.609402,-1.1405828 c -0.625,0.61718753 -1.367188,1.10156255 -2.2187505,1.45312506 -0.8671876,0.35156252 -1.7304688,0.53125003 -2.5937501,0.53125003 -0.8671876,0 -1.7304689,-0.17968751 -2.5937501,-0.53125003 C 3.3359637,-0.03902025 2.5976824,-0.52339527 1.9844012,-1.1405828 1.3789324,-1.7655828 0.89455737,-2.5038641 0.53127611,-3.3593329 0.17580734,-4.2108954 2.6083334e-5,-5.078083 2.6083334e-5,-5.953083 c 0,-0.8632813 0.175781256666,-1.7226563 0.531250026666,-2.5781251 0.36328126,-0.875 0.84765629,-1.6132809 1.45312509,-2.2187499 0.6132812,-0.613281 1.3515625,-1.101563 2.2187501,-1.46875 0.8632812,-0.351563 1.7265625,-0.53125 2.5937501,-0.53125 0.8632813,0 1.7265625,0.179687 2.5937501,0.53125 0.8515625,0.367187 1.5937505,0.855469 2.2187505,1.46875 0.601562,0.605469 1.082031,1.3437499 1.4375,2.2187499 0.363281,0.8554688 0.546875,1.7148438 0.546875,2.5781251 0,0.875 -0.183594,1.7421876 -0.546875,2.5937501 -0.355469,0.8554688 -0.835938,1.5937501 -1.4375,2.2187501 z M 7.0469014,-10.374958 c -0.023437,0 -0.046875,0 -0.078125,0 -0.023437,0 -0.042969,0 -0.0625,0 -0.40625,0 -0.7773438,0.05469 -1.1093751,0.15625 -0.3359375,0.09375 -0.6328125,0.2421873 -0.890625,0.4374998 -0.2617188,0.1992188 -0.4609375,0.4296876 -0.59375,0.6875001 -0.125,0.2617187 -0.1875,0.5546875 -0.1875,0.875 0,0.125 0.00781,0.2578125 0.03125,0.390625 0.03125,0.125 0.070312,0.25 0.125,0.375 0.050781,0.1171875 0.109375,0.2265625 0.171875,0.3281251 0.0625,0.09375 0.125,0.1835937 0.1875,0.265625 0.070312,0.085937 0.1445312,0.1679687 0.21875,0.25 0.082031,0.074219 0.1601562,0.1367187 0.234375,0.1875 0.09375,0.0625 0.1796875,0.1210937 0.265625,0.171875 0.082031,0.042969 0.1640625,0.085937 0.25,0.125 -0.2929687,0.1484375 -0.5429688,0.3046875 -0.75,0.46875 -0.2109375,0.15625 -0.3828125,0.328125 -0.515625,0.515625 -0.15625,0.1992188 -0.2734375,0.4062501 -0.34375,0.6250001 -0.0625,0.21875 -0.09375,0.4609375 -0.09375,0.71875 0,0.3359375 0.0625,0.6328125 0.1875001,0.890625 0.1328125,0.2617188 0.3320312,0.4804688 0.59375,0.6562501 0.2578125,0.1796875 0.5703125,0.3125 0.9375,0.40625 0.3632813,0.09375 0.7890626,0.140625 1.2812501,0.140625 0.4765625,0 0.8984375,-0.046875 1.265625,-0.140625 0.375,-0.09375 0.6914063,-0.2421875 0.9531251,-0.453125 0.2578125,-0.1953126 0.453125,-0.4375001 0.578125,-0.7187501 0.1328125,-0.2890625 0.203125,-0.6289063 0.203125,-1.015625 0,-0.2382813 -0.039063,-0.46875 -0.109375,-0.6875 C 9.7226827,-4.937458 9.6133077,-5.140583 9.4687765,-5.328083 9.3125265,-5.5233955 9.132839,-5.7069892 8.9375265,-5.874958 8.7383077,-6.0507393 8.5156514,-6.2069893 8.2656514,-6.343708 c 0.1132813,-0.039063 0.2226563,-0.09375 0.328125,-0.15625 0.1132813,-0.0625 0.2226563,-0.1328125 0.3281251,-0.21875 0.1015625,-0.070312 0.1953125,-0.1601563 0.28125,-0.265625 0.09375,-0.1132813 0.1757812,-0.2421876 0.25,-0.3906251 0.039063,-0.0625 0.078125,-0.1289062 0.109375,-0.203125 0.03125,-0.082031 0.050781,-0.1601562 0.0625,-0.234375 0.019531,-0.082031 0.035156,-0.1601562 0.046875,-0.234375 0.00781,-0.082031 0.015625,-0.15625 0.015625,-0.21875 0,-0.3320313 -0.070312,-0.625 -0.203125,-0.875 -0.125,-0.2578125 -0.3203125,-0.4882813 -0.578125,-0.6875001 -0.2421876,-0.1874998 -0.5156251,-0.3203128 -0.8281251,-0.4062498 -0.3046875,-0.09375 -0.6484375,-0.140625 -1.03125,-0.140625 z m -0.140625,1.2499999 c 0.15625,0 0.296875,0.027344 0.421875,0.078125 0.1328125,0.042969 0.2539062,0.1054687 0.359375,0.1875 0.09375,0.09375 0.1640625,0.1992187 0.21875,0.3125 0.050781,0.1171875 0.078125,0.2421875 0.078125,0.375 0,0.1367188 -0.023437,0.265625 -0.0625,0.390625 -0.042969,0.1171875 -0.1054687,0.2304688 -0.1875,0.34375 -0.074219,0.1054688 -0.171875,0.2109375 -0.296875,0.3125001 -0.125,0.09375 -0.265625,0.1835937 -0.421875,0.265625 -0.1992188,-0.082031 -0.3710938,-0.1640625 -0.515625,-0.25 -0.1484376,-0.09375 -0.2656251,-0.1875001 -0.3593751,-0.2812501 -0.1171875,-0.09375 -0.1992187,-0.1953125 -0.25,-0.3125 -0.042969,-0.125 -0.0625,-0.2539062 -0.0625,-0.390625 0,-0.1640625 0.019531,-0.3046875 0.0625,-0.421875 0.050781,-0.125 0.1289063,-0.2382813 0.234375,-0.34375 0.082031,-0.082031 0.1914063,-0.1445313 0.3281251,-0.1875 0.1328125,-0.050781 0.2851562,-0.078125 0.453125,-0.078125 z m -0.109375,3.6250001 c 0.2070312,0.1054688 0.3945312,0.2109375 0.5625,0.3125 0.1640625,0.1054688 0.3007813,0.2148438 0.40625,0.328125 0.1132813,0.1250001 0.203125,0.2578126 0.265625,0.3906251 0.070312,0.125 0.1132813,0.2578125 0.125,0.390625 0,0.1679687 -0.03125,0.3203125 -0.09375,0.453125 -0.054687,0.125 -0.1367187,0.234375 -0.25,0.328125 -0.1171875,0.09375 -0.25,0.1679688 -0.40625,0.21875 -0.1484375,0.042969 -0.3125,0.0625 -0.5,0.0625 -0.1875,0 -0.359375,-0.019531 -0.5156251,-0.0625 -0.1484375,-0.039063 -0.2773437,-0.109375 -0.390625,-0.203125 -0.1171875,-0.09375 -0.203125,-0.203125 -0.265625,-0.328125 -0.054687,-0.125 -0.078125,-0.265625 -0.078125,-0.421875 0,-0.15625 0.019531,-0.3007813 0.0625,-0.4375 0.039063,-0.1328125 0.109375,-0.2695313 0.203125,-0.4062501 0.082031,-0.125 0.1953125,-0.234375 0.34375,-0.328125 0.1445313,-0.1015625 0.3203126,-0.203125 0.5312501,-0.296875 z m 0,0"
       style="fill:currentColor;fill-opacity:1;fill-rule:nonzero;stroke:none"
       aria-label="юдн"
       transform="translate(625.99997,1014)"
       clip-path="url(#clipPath423)" />
  </g>
</svg>
