<?xml version="1.0" encoding="UTF-8" standalone="no"?>
<!-- Created with Inkscape (http://www.inkscape.org/) -->

<svg
   version="1.1"
   id="svg1"
   width="13.59375"
   height="13.59375"
   viewBox="0 0 13.59375 13.593751"
   xmlns:inkscape="http://www.inkscape.org/namespaces/inkscape"
   xmlns:sodipodi="http://sodipodi.sourceforge.net/DTD/sodipodi-0.dtd"
   xmlns="http://www.w3.org/2000/svg"
   xmlns:svg="http://www.w3.org/2000/svg">
  <defs
     id="defs1">
    <clipPath
       clipPathUnits="userSpaceOnUse"
       id="clipPath425">
      <path
         d="M 0,0 H 2479.9805 V 3508.0078 H 0 Z"
         transform="matrix(0.31999999,0,0,0.31999999,-639.99997,-1014)"
         clip-rule="evenodd"
         id="path425" />
    </clipPath>
  </defs>
  <sodipodi:namedview
     id="namedview1"
     pagecolor="#ffffff"
     bordercolor="#999999"
     borderopacity="1"
     inkscape:showpageshadow="0"
     inkscape:pageopacity="0"
     inkscape:pagecheckerboard="0"
     inkscape:deskcolor="#d1d1d1"
     inkscape:export-bgcolor="#ffffff00" />
  <g
     id="g1"
     inkscape:groupmode="layer"
     inkscape:label="1"
     transform="translate(-640,-1001.25)">
    <path
       id="path424"
       d="m 11.609402,-1.1405828 c -0.625,0.61718753 -1.367187,1.10156255 -2.2187499,1.45312506 -0.8671876,0.35156252 -1.7304689,0.53125003 -2.5937502,0.53125003 -0.8671875,0 -1.7304688,-0.17968751 -2.5937501,-0.53125003 C 3.3359643,-0.03902025 2.597683,-0.52339527 1.9844017,-1.1405828 1.378933,-1.7655828 0.89455795,-2.5038641 0.53127669,-3.3593329 0.17580792,-4.2108954 2.6666668e-5,-5.078083 2.6666668e-5,-5.953083 c 0,-0.8632813 0.175781253332,-1.7226563 0.531250023332,-2.5781251 0.36328126,-0.875 0.84765631,-1.6132809 1.45312501,-2.2187499 0.6132813,-0.613281 1.3515626,-1.101563 2.2187501,-1.46875 0.8632813,-0.351563 1.7265626,-0.53125 2.5937501,-0.53125 0.8632813,0 1.7265626,0.179687 2.5937502,0.53125 0.8515629,0.367187 1.5937499,0.855469 2.2187499,1.46875 0.601563,0.605469 1.082031,1.3437499 1.4375,2.2187499 0.363281,0.8554688 0.546875,1.7148438 0.546875,2.5781251 0,0.875 -0.183594,1.7421876 -0.546875,2.5937501 -0.355469,0.8554688 -0.835937,1.5937501 -1.4375,2.2187501 z M 6.843777,-10.437458 c -0.4609376,0 -0.8710938,0.0625 -1.2343751,0.1875 -0.3554688,0.117187 -0.6679688,0.2929686 -0.9375,0.5312498 -0.2617188,0.2304688 -0.4531251,0.5312501 -0.5781251,0.9062501 -0.125,0.375 -0.1875,0.8203125 -0.1875,1.328125 0,0.2734375 0.019531,0.5234376 0.0625,0.7500001 0.050781,0.2304687 0.1289063,0.4453125 0.234375,0.640625 0.1015625,0.1992188 0.2265626,0.3710938 0.3750001,0.515625 0.15625,0.1484375 0.328125,0.2734375 0.515625,0.375 0.1132812,0.0625 0.2265625,0.1171875 0.34375,0.15625 0.125,0.042969 0.25,0.078125 0.375,0.109375 0.1132813,0.023437 0.2265625,0.039063 0.34375,0.046875 0.125,0.011719 0.2421875,0.015625 0.359375,0.015625 0.1757813,0 0.3515626,-0.015625 0.5312501,-0.046875 0.1757812,-0.039063 0.3476562,-0.1015625 0.515625,-0.1875 0.1640625,-0.082031 0.3046875,-0.171875 0.421875,-0.265625 0.125,-0.1015625 0.21875,-0.21875 0.28125,-0.34375 h 0.046875 c -0.011719,0.03125 -0.027344,0.078125 -0.046875,0.140625 -0.011719,0.054687 -0.027344,0.1171875 -0.046875,0.1875 -0.023437,0.15625 -0.054687,0.3085938 -0.09375,0.453125 -0.03125,0.1484376 -0.078125,0.2812501 -0.140625,0.4062501 -0.054687,0.1367187 -0.1171875,0.265625 -0.1875,0.390625 -0.074219,0.1171875 -0.15625,0.2304687 -0.25,0.34375 -0.1171875,0.1171875 -0.234375,0.21875 -0.359375,0.3125 -0.1171875,0.085937 -0.25,0.15625 -0.4062501,0.21875 -0.1484375,0.074219 -0.3046875,0.1328125 -0.46875,0.171875 -0.15625,0.03125 -0.3203125,0.046875 -0.484375,0.046875 -0.1484375,0 -0.2929688,-0.00391 -0.4375,-0.015625 -0.1367188,-0.00781 -0.2734375,-0.023437 -0.40625,-0.046875 -0.1367188,-0.00781 -0.2734375,-0.023437 -0.40625,-0.046875 -0.1367188,-0.019531 -0.2656251,-0.046875 -0.3906251,-0.078125 -0.03125,0.085937 -0.058594,0.1640625 -0.078125,0.234375 -0.023437,0.074219 -0.042969,0.140625 -0.0625,0.203125 -0.011719,0.054687 -0.023437,0.1054688 -0.03125,0.15625 0,0.054687 0,0.1015625 0,0.140625 0,0.054687 0,0.09375 0,0.1250001 0.00781,0.03125 0.015625,0.058594 0.015625,0.078125 0,0.03125 0.00781,0.0625 0.03125,0.09375 0.019531,0.023437 0.039063,0.039063 0.0625,0.046875 0.039063,0.054687 0.1132813,0.1054687 0.21875,0.15625 0.1132813,0.054687 0.2578126,0.09375 0.4375001,0.125 0.1640625,0.042969 0.34375,0.074219 0.53125,0.09375 0.1875,0.011719 0.375,0.015625 0.5625,0.015625 0.3828125,0 0.7421875,-0.039063 1.0781251,-0.125 0.34375,-0.09375 0.6601562,-0.234375 0.953125,-0.421875 0.2890625,-0.1875001 0.5390625,-0.4140626 0.75,-0.6875001 0.21875,-0.28125 0.40625,-0.6015625 0.5625001,-0.96875 0.1015625,-0.2265625 0.1875,-0.4570313 0.25,-0.6875 0.070312,-0.2382813 0.1328125,-0.4843751 0.1875,-0.7343751 0.039063,-0.25 0.070312,-0.5078125 0.09375,-0.78125 0.019531,-0.2695313 0.03125,-0.5507813 0.03125,-0.84375 0,-0.5937501 -0.0625,-1.1093751 -0.1875,-1.5468751 -0.125,-0.4375 -0.3085938,-0.7890625 -0.5468751,-1.0625001 -0.2617187,-0.2578125 -0.5742187,-0.4570308 -0.9375,-0.5937498 -0.3671875,-0.144531 -0.7890625,-0.21875 -1.265625,-0.21875 z m 0,1.3124999 c 0.1757812,0 0.3320312,0.03125 0.46875,0.09375 0.1328125,0.0625 0.2539062,0.1523437 0.359375,0.265625 0.09375,0.125 0.1640625,0.2890625 0.21875,0.484375 0.0625,0.1992188 0.09375,0.4296875 0.09375,0.6875 0,0.2304688 -0.03125,0.4335938 -0.09375,0.6093751 -0.054687,0.1796875 -0.125,0.3359375 -0.21875,0.46875 -0.1171875,0.1367187 -0.2460938,0.234375 -0.390625,0.296875 -0.1367188,0.0625 -0.296875,0.09375 -0.4843751,0.09375 -0.1875,0 -0.3554687,-0.03125 -0.5,-0.09375 -0.1367187,-0.0625 -0.25,-0.1601563 -0.34375,-0.296875 -0.09375,-0.1328125 -0.1679687,-0.296875 -0.21875,-0.484375 -0.054687,-0.1875 -0.078125,-0.3984376 -0.078125,-0.6406251 0,-0.2382812 0.023437,-0.453125 0.078125,-0.640625 0.050781,-0.1875 0.125,-0.34375 0.21875,-0.46875 0.1015625,-0.125 0.2265625,-0.21875 0.375,-0.28125 0.15625,-0.0625 0.328125,-0.09375 0.5156251,-0.09375 z m 0,0"
       style="fill:currentColor;fill-opacity:1;fill-rule:nonzero;stroke:none"
       aria-label=""
       transform="translate(639.99997,1014)"
       clip-path="url(#clipPath425)" />
  </g>
</svg>
